<?xml version="1.0" encoding="UTF-8"?>
<svg width="166px" height="203px" viewBox="0 0 166 203" version="1.1" xmlns="http://www.w3.org/2000/svg" xmlns:xlink="http://www.w3.org/1999/xlink">
    <title>Group 81</title>
    <defs>
        <linearGradient x1="17.5115749%" y1="0%" x2="82.4884251%" y2="100%" id="linearGradient-1">
            <stop stop-color="#FF702A" offset="0%"></stop>
            <stop stop-color="#C507C9" offset="100%"></stop>
        </linearGradient>
    </defs>
    <g id="Design" stroke="none" strokeWidth="1" fill="none" fillRule="evenodd">
        <g id="Group-81" transform="translate(0.000000, -0.001632)">
            <rect id="Rectangle" x="0" y="0.00163240977" width="166" height="203"></rect>
            <path d="M114.801426,0.00248720832 C139.169636,20.8462095 153.503169,51.2541974 153.503169,84.0013262 C153.503169,145.028791 104.030634,194.501326 43.0031689,194.501326 C28.1413462,194.501326 13.6882535,191.564994 0.280626176,185.93904 C0.161198512,185.888321 0.071627763,185.850281 0.0119139305,185.824921 L0.000970390562,182.557956 C0.132375978,182.614432 0.329484358,182.699147 0.592295533,182.8121 C13.8721284,188.519619 28.2274718,191.501326 43.0031689,191.501326 C102.373779,191.501326 150.503169,143.371937 150.503169,84.0013262 C150.503169,51.8710526 136.32326,22.0610564 112.246414,1.76902041 L111.513788,1.15703101 L110.217258,0.00248720832 L114.801426,0.00248720832 Z M156.785026,0 C132.743827,26.8714751 96.6820293,67.1786878 48.5996319,120.921638 C48.0592209,121.525669 47.1456521,121.585691 46.5323797,121.082999 L46.4210746,120.982145 L0.0107221917,74.5717927 L0.00260668996,70.3210365 L47.42,117.738632 L152.757351,0.00248720832" id="Combined-Shape" fill="url(#linearGradient-1)" fillRule="nonzero"></path>
        </g>
    </g>
</svg>