<?xml version="1.0" standalone="no"?>
<!DOCTYPE svg PUBLIC "-//W3C//DTD SVG 20010904//EN"
 "http://www.w3.org/TR/2001/REC-SVG-20010904/DTD/svg10.dtd">
<svg version="1.0" xmlns="http://www.w3.org/2000/svg"
 width="666.000000pt" height="556.000000pt" viewBox="0 0 666.000000 556.000000"
 preserveAspectRatio="xMidYMid meet">

<g transform="translate(0.000000,556.000000) scale(0.100000,-0.100000)"
fill="#000000" stroke="none">
<path d="M4410 4314 c-8 -2 -91 -8 -185 -14 -93 -5 -296 -19 -450 -30 -154
-11 -381 -27 -505 -35 -252 -17 -1037 -74 -1440 -105 -146 -11 -418 -32 -605
-45 -410 -31 -445 -38 -445 -91 0 -20 277 -873 368 -1132 33 -96 50 -108 134
-94 35 6 102 13 151 16 86 5 87 5 87 -18 0 -40 12 -86 23 -86 5 0 15 7 21 15
12 17 47 20 751 64 176 12 352 23 390 26 39 3 119 8 179 10 60 2 118 7 129 11
13 4 17 2 13 -5 -4 -6 0 -11 9 -11 9 0 13 5 9 11 -5 9 11 10 60 5 52 -6 66 -5
66 6 0 10 3 9 10 -2 7 -12 12 -12 22 -2 16 16 62 16 52 0 -5 -8 0 -9 17 -5 13
4 30 7 37 7 7 0 10 5 7 10 -3 6 1 10 10 10 9 0 13 -4 10 -10 -4 -6 7 -10 25
-10 17 0 29 4 25 9 -3 6 20 8 59 4 41 -3 66 -1 70 6 4 6 16 11 27 11 13 0 18
-4 13 -11 -5 -9 1 -10 22 -4 16 5 57 8 91 6 33 -1 64 2 67 7 3 5 27 7 52 4 31
-3 45 -1 41 5 -5 7 21 9 76 6 46 -3 78 -2 74 3 -5 5 11 14 35 19 30 8 44 17
46 30 10 66 4 63 109 69 214 14 225 17 238 78 7 28 9 29 42 23 126 -23 268
-95 366 -185 54 -50 123 -144 165 -225 27 -54 78 -215 91 -289 23 -127 5 -313
-40 -428 -10 -27 -17 -53 -14 -58 3 -5 1 -10 -4 -12 -16 -6 -52 -108 -38 -109
6 0 1 -4 -11 -10 -13 -5 -22 -15 -20 -21 3 -7 -6 -24 -19 -38 -13 -14 -26 -36
-30 -50 -3 -14 -10 -28 -15 -31 -4 -3 -1 -14 8 -25 15 -18 15 -18 8 5 -4 17
-3 21 6 16 15 -9 39 24 35 47 -2 11 2 18 11 18 8 0 13 3 12 8 -5 15 45 101 55
95 6 -4 8 0 4 10 -3 9 -1 17 4 19 6 2 11 10 12 18 2 8 6 20 10 27 12 19 45
133 62 211 38 182 1 454 -85 622 -117 229 -288 363 -547 430 -26 7 -43 17 -43
26 0 24 112 532 205 927 19 81 35 163 35 182 0 51 -35 65 -152 64 -51 -1 -100
-3 -108 -5z m581 -2507 c-10 -9 -11 -8 -5 6 3 10 9 15 12 12 3 -3 0 -11 -7
-18z m-81 -174 c-11 -17 -11 -17 -6 0 3 10 6 24 7 30 0 9 2 9 5 0 3 -7 0 -20
-6 -30z"/>
<path d="M5236 3493 c-3 -3 -3 -25 1 -49 5 -41 4 -44 -18 -44 -35 0 -82 -47
-75 -74 3 -11 6 -26 6 -32 0 -7 16 -19 35 -28 33 -16 37 -16 65 1 30 17 30 17
30 113 0 83 -3 97 -19 107 -10 7 -21 9 -25 6z m2 -166 c4 -20 -25 -34 -40 -19
-15 15 -1 44 19 40 10 -2 19 -11 21 -21z"/>
<path d="M5353 3396 c-28 -18 -33 -27 -33 -62 0 -36 3 -42 36 -57 26 -13 40
-15 55 -7 24 13 19 24 -21 40 -16 7 -30 19 -30 27 0 21 29 27 49 9 16 -15 19
-15 36 5 21 22 20 24 -35 53 -22 12 -29 11 -57 -8z"/>
<path d="M4832 3368 c-29 -18 -32 -25 -32 -70 0 -42 3 -49 16 -44 9 3 18 6 20
6 2 0 4 13 4 29 0 37 24 59 45 41 8 -7 15 -23 15 -36 0 -13 9 -28 20 -34 19
-10 20 -8 20 39 0 48 -2 51 -38 70 -38 19 -38 19 -70 -1z"/>
<path d="M5083 3325 c-10 -10 -9 -15 5 -20 14 -5 14 -7 2 -15 -13 -8 -12 -10
3 -10 14 0 16 5 11 28 -4 15 -7 28 -8 28 -1 1 -6 -4 -13 -11z"/>
<path d="M4990 3286 c0 -8 7 -16 15 -20 9 -3 15 0 15 8 0 8 -7 16 -15 20 -9 3
-15 0 -15 -8z"/>
<path d="M4015 2860 c-18 -8 -17 -9 8 -9 15 -1 27 4 27 9 0 12 -8 12 -35 0z"/>
<path d="M5578 2863 c7 -3 16 -2 19 1 4 3 -2 6 -13 5 -11 0 -14 -3 -6 -6z"/>
<path d="M5423 2755 c0 -8 4 -12 9 -9 5 3 6 10 3 15 -9 13 -12 11 -12 -6z"/>
<path d="M5460 2753 c0 -15 2 -15 24 -7 22 9 20 20 -4 20 -11 0 -20 -6 -20
-13z"/>
<path d="M5526 2755 c4 -8 8 -15 10 -15 2 0 4 7 4 15 0 8 -4 15 -10 15 -5 0
-7 -7 -4 -15z"/>
<path d="M5576 2755 c4 -8 8 -15 10 -15 2 0 4 7 4 15 0 8 -4 15 -10 15 -5 0
-7 -7 -4 -15z"/>
<path d="M5704 2745 c0 -15 5 -21 13 -18 7 3 13 -1 13 -8 0 -9 3 -10 8 -4 4 6
16 12 27 13 26 5 29 8 20 22 -4 7 -16 10 -26 7 -11 -3 -19 -2 -19 2 0 4 -8 7
-18 8 -13 1 -18 -6 -18 -22z m36 -5 c0 -5 -2 -10 -4 -10 -3 0 -8 5 -11 10 -3
6 -1 10 4 10 6 0 11 -4 11 -10z"/>
<path d="M2408 2743 c7 -3 16 -2 19 1 4 3 -2 6 -13 5 -11 0 -14 -3 -6 -6z"/>
<path d="M2448 2743 c7 -3 16 -2 19 1 4 3 -2 6 -13 5 -11 0 -14 -3 -6 -6z"/>
<path d="M2248 2733 c6 -2 18 -2 25 0 6 3 1 5 -13 5 -14 0 -19 -2 -12 -5z"/>
<path d="M5372 2690 c0 -14 2 -19 5 -12 2 6 2 18 0 25 -3 6 -5 1 -5 -13z"/>
<path d="M5530 2701 c0 -9 30 -24 36 -18 2 1 -6 8 -16 15 -11 7 -20 8 -20 3z"/>
<path d="M5635 2700 c3 -5 8 -10 11 -10 2 0 4 5 4 10 0 6 -5 10 -11 10 -5 0
-7 -4 -4 -10z"/>
<path d="M3903 2693 c-8 -2 -13 -22 -13 -44 l0 -40 77 3 c84 3 92 10 79 64 -6
22 -11 24 -69 23 -34 0 -68 -3 -74 -6z"/>
<path d="M3755 2681 c-37 -5 -40 -9 -43 -40 -2 -18 1 -38 6 -43 6 -6 39 -7 81
-2 l72 7 -3 41 c-3 39 -4 41 -38 42 -19 1 -53 -1 -75 -5z"/>
<path d="M3600 2673 c-63 -10 -70 -13 -70 -37 0 -48 9 -56 65 -56 30 0 66 4
80 10 22 8 25 15 22 39 -9 52 -19 57 -97 44z"/>
<path d="M3388 2653 c-25 -4 -28 -8 -28 -44 l0 -39 74 0 c82 0 94 10 80 64 -6
24 -10 26 -53 25 -25 -1 -58 -4 -73 -6z"/>
<path d="M2888 2643 c6 -2 18 -2 25 0 6 3 1 5 -13 5 -14 0 -19 -2 -12 -5z"/>
<path d="M3233 2643 l-53 -4 0 -40 c0 -24 5 -42 13 -45 8 -3 42 -1 78 3 l64 8
0 40 c0 45 -1 45 -102 38z"/>
<path d="M5646 2642 c-3 -6 -1 -14 5 -17 14 -9 20 -2 10 14 -6 8 -11 9 -15 3z"/>
<path d="M2708 2633 c6 -2 18 -2 25 0 6 3 1 5 -13 5 -14 0 -19 -2 -12 -5z"/>
<path d="M2573 2623 c9 -2 23 -2 30 0 6 3 -1 5 -18 5 -16 0 -22 -2 -12 -5z"/>
<path d="M3004 2616 c-3 -8 -4 -27 -2 -43 3 -24 8 -28 38 -31 19 -2 54 -1 78
3 43 6 43 7 40 43 l-3 37 -73 3 c-56 2 -74 0 -78 -12z"/>
<path d="M2838 2613 c-18 -5 -24 -37 -12 -67 7 -17 64 -22 123 -10 30 6 32 9
29 43 l-3 36 -60 2 c-33 0 -68 -1 -77 -4z"/>
<path d="M2688 2603 c-42 -5 -54 -25 -39 -65 9 -23 13 -25 68 -21 83 6 85 7
81 50 -3 36 -5 38 -38 39 -19 1 -52 -1 -72 -3z"/>
<path d="M5605 2599 c-4 -6 -5 -12 -2 -15 2 -3 7 2 10 11 7 17 1 20 -8 4z"/>
<path d="M2535 2590 l-60 -5 -3 -38 c-4 -46 4 -49 83 -40 l60 8 3 36 c4 43 -2
46 -83 39z"/>
<path d="M3922 2590 c-51 -5 -96 -11 -99 -14 -4 -3 -2 -36 3 -73 l9 -68 95 4
c52 2 105 7 118 12 21 8 22 13 16 66 -7 60 -18 84 -38 82 -6 -1 -53 -5 -104
-9z"/>
<path d="M2302 2571 c-8 -5 -12 -22 -10 -42 l3 -34 70 3 c38 1 72 7 75 13 4 5
5 23 2 39 -4 30 -5 30 -66 30 -33 0 -67 -4 -74 -9z"/>
<path d="M3700 2573 c-53 -5 -59 -13 -53 -67 10 -93 7 -89 77 -84 86 7 90 10
82 73 -8 72 -15 85 -40 83 -11 -1 -41 -3 -66 -5z"/>
<path d="M2155 2561 c-38 -6 -40 -8 -40 -41 l0 -35 67 0 c37 0 72 5 78 11 6 6
7 24 4 42 -7 35 -18 37 -109 23z"/>
<path d="M3535 2561 l-50 -6 0 -70 0 -70 64 -3 c35 -2 69 2 74 7 13 13 9 121
-5 138 -6 7 -16 12 -22 11 -6 0 -33 -4 -61 -7z"/>
<path d="M1942 2541 c-8 -4 -12 -21 -10 -37 3 -27 7 -29 48 -32 24 -2 60 -1
78 3 30 6 33 9 30 38 l-3 32 -65 3 c-36 1 -71 -2 -78 -7z"/>
<path d="M3335 2543 c-33 -8 -37 -18 -29 -82 l7 -62 71 3 71 3 3 49 c5 85 -1
96 -56 95 -26 -1 -56 -3 -67 -6z"/>
<path d="M1789 2533 c-21 -3 -28 -11 -31 -33 -7 -45 1 -49 77 -42 l70 7 0 35
c0 35 0 35 -45 36 -25 1 -57 0 -71 -3z"/>
<path d="M3187 2533 c-57 -5 -62 -13 -52 -88 l6 -55 70 0 c82 0 86 5 73 89
-10 62 -8 61 -97 54z"/>
<path d="M1543 2470 c0 -36 2 -50 4 -32 2 17 2 47 0 65 -2 17 -4 3 -4 -33z"/>
<path d="M1615 2521 c-30 -4 -40 -11 -39 -23 3 -59 2 -58 52 -57 81 2 97 10
97 49 0 33 -2 35 -35 36 -19 1 -53 -1 -75 -5z"/>
<path d="M2963 2505 c-8 -21 2 -114 13 -125 5 -5 38 -6 74 -2 l65 7 -3 55 c-4
81 -3 80 -77 80 -50 0 -67 -4 -72 -15z"/>
<path d="M2796 2502 c-11 -10 -6 -131 5 -137 6 -4 40 -4 75 0 l65 7 -3 66 -3
67 -67 1 c-37 1 -69 -1 -72 -4z"/>
<path d="M2650 2491 l-35 -6 4 -60 c1 -33 5 -63 8 -67 5 -9 105 -11 127 -2 17
6 22 75 10 122 -7 23 -36 27 -114 13z"/>
<path d="M2498 2483 c-27 -2 -48 -7 -49 -11 0 -4 -2 -15 -4 -25 -2 -9 0 -38 3
-64 l7 -47 55 2 c93 5 94 5 86 74 -7 69 -11 79 -34 76 -9 -1 -38 -3 -64 -5z"/>
<path d="M2330 2470 l-55 -5 0 -55 c1 -88 4 -92 77 -84 35 3 66 9 70 13 4 3 4
34 1 68 -6 70 -8 71 -93 63z"/>
<path d="M2118 2453 c-14 -3 -18 -15 -18 -51 0 -26 3 -58 7 -71 5 -22 9 -23
62 -17 31 3 62 5 69 6 8 0 12 18 12 54 0 81 -4 86 -64 85 -28 -1 -59 -3 -68
-6z"/>
<path d="M1972 2443 l-43 -4 3 -67 c3 -66 3 -67 32 -70 17 -2 49 -1 73 3 l43
6 0 50 c0 62 -14 90 -43 87 -12 -1 -41 -3 -65 -5z m38 -33 c0 -5 -4 -10 -10
-10 -5 0 -10 5 -10 10 0 6 5 10 10 10 6 0 10 -4 10 -10z"/>
<path d="M1767 2423 c-4 -3 -7 -35 -7 -70 l0 -63 64 0 c39 0 67 5 73 13 5 6 7
38 5 70 l-4 57 -62 0 c-35 0 -66 -3 -69 -7z"/>
<path d="M3956 2423 l-39 -4 7 -66 c8 -77 11 -83 37 -83 17 0 19 -7 19 -61 0
-81 11 -99 59 -99 21 0 43 6 49 13 10 13 -9 274 -22 295 -7 12 -32 13 -110 5z"/>
<path d="M1613 2413 c-36 -5 -40 -17 -27 -96 l7 -38 66 3 66 3 0 65 0 65 -40
1 c-22 1 -55 -1 -72 -3z m44 -95 c-3 -7 -5 -2 -5 12 0 14 2 19 5 13 2 -7 2
-19 0 -25z"/>
<path d="M3805 2411 l-50 -6 -3 -58 c-4 -80 6 -90 82 -82 34 4 65 9 70 12 12
8 -3 126 -17 135 -7 4 -16 7 -22 6 -5 -1 -32 -4 -60 -7z"/>
<path d="M3583 2388 c-9 -11 -4 -100 6 -128 3 -8 134 -1 142 7 4 5 4 35 1 68
l-7 60 -66 3 c-45 2 -69 -1 -76 -10z"/>
<path d="M3419 2380 c-13 -8 -16 -22 -13 -66 2 -31 7 -60 10 -65 6 -10 104
-12 128 -3 11 4 16 19 16 53 0 85 -5 91 -69 91 -31 0 -63 -5 -72 -10z"/>
<path d="M3275 2371 l-40 -6 3 -65 c2 -35 7 -67 12 -70 4 -3 37 -3 72 0 l63 5
-1 57 c-2 93 -5 95 -109 79z"/>
<path d="M3120 2361 l-55 -6 -3 -60 c-3 -85 2 -89 84 -79 l69 9 -3 65 c-3 56
-14 83 -32 78 -3 -1 -30 -4 -60 -7z"/>
<path d="M2894 2337 c-3 -8 -4 -41 -2 -73 l3 -59 40 -3 c21 -2 54 -1 73 3 l33
6 -3 67 -3 67 -68 3 c-51 2 -69 -1 -73 -11z"/>
<path d="M2745 2331 c-32 -7 -30 0 -26 -106 l1 -35 63 0 c88 0 92 5 81 82 l-9
63 -40 2 c-22 0 -53 -2 -70 -6z"/>
<path d="M2600 2321 c-47 -5 -55 -9 -58 -28 -4 -28 -22 -30 -29 -3 -5 17 -14
20 -68 20 -44 0 -66 -5 -75 -15 -9 -11 -16 -13 -24 -5 -11 11 -67 13 -115 4
-29 -6 -31 -9 -31 -50 0 -24 3 -44 7 -44 4 0 29 21 55 47 l48 48 -4 -38 c-6
-46 -14 -59 -29 -50 -9 5 -9 3 0 -8 10 -12 8 -21 -7 -47 -27 -45 -12 -40 50
16 29 26 72 64 96 85 23 21 45 34 48 28 4 -5 2 -12 -3 -15 -5 -3 -7 -15 -4
-26 4 -14 0 -20 -12 -20 -12 0 -15 -5 -11 -16 11 -29 -90 -160 -126 -166 -18
-2 -24 -15 -35 -73 -8 -38 -26 -90 -41 -115 -15 -25 -27 -47 -27 -50 0 -3 -13
-25 -29 -48 -29 -46 -29 -72 2 -72 23 0 46 25 107 120 55 83 254 290 280 290
12 0 15 5 11 16 -3 9 -6 22 -6 30 0 8 -10 14 -25 14 -27 0 -30 6 -15 30 6 10
12 12 19 5 11 -11 134 -5 146 6 3 4 2 35 -2 70 -9 71 -7 69 -93 60z"/>
<path d="M2067 2283 l-47 -4 2 -45 c1 -25 -3 -49 -8 -52 -12 -9 -44 -59 -44
-68 0 -4 11 3 25 16 38 36 30 16 -35 -90 -63 -102 -85 -166 -93 -280 l-5 -65
23 29 c12 15 46 84 75 153 29 68 62 130 73 138 17 12 20 24 18 68 l-2 54 62 7
c34 3 63 7 65 9 1 1 -1 31 -5 67 -7 73 -4 71 -104 63z m53 -63 c0 -5 -5 -10
-11 -10 -5 0 -7 5 -4 10 3 6 8 10 11 10 2 0 4 -4 4 -10z"/>
<path d="M1910 2271 c-54 -6 -55 -7 -58 -40 -2 -19 -1 -50 3 -68 5 -30 9 -33
43 -33 31 0 41 5 55 30 10 17 25 30 33 30 21 0 19 76 -2 84 -9 3 -16 5 -17 4
-1 -1 -27 -4 -57 -7z"/>
<path d="M1640 2251 l-45 -6 2 -63 c1 -35 4 -66 6 -69 3 -2 53 -1 112 3 76 5
108 11 112 21 3 7 2 38 -2 68 l-6 55 -67 -2 c-37 0 -87 -4 -112 -7z m40 -87
c0 -8 -5 -12 -10 -9 -6 4 -8 11 -5 16 9 14 15 11 15 -7z"/>
<path d="M3814 2237 c-3 -8 -4 -41 -2 -73 l3 -59 60 -3 c84 -4 95 7 87 83 l-7
60 -68 3 c-51 2 -69 -1 -73 -11z"/>
<path d="M3648 2227 c-10 -10 -12 -31 -8 -73 l5 -59 64 -3 c36 -2 69 2 74 7 6
6 10 32 8 59 -4 80 -5 82 -71 82 -36 0 -64 -5 -72 -13z"/>
<path d="M3491 2223 l-34 -4 7 -67 c4 -37 11 -71 16 -76 4 -4 37 -4 72 1 l63
8 0 55 c-1 94 -6 97 -124 83z"/>
<path d="M3355 2213 c-50 -4 -79 -18 -70 -34 3 -4 6 -28 7 -53 1 -67 6 -71 85
-60 l68 9 -3 60 c-3 55 -15 88 -31 83 -3 -1 -28 -3 -56 -5z"/>
<path d="M3128 2188 c-12 -10 -14 -26 -9 -73 l6 -60 40 -3 c21 -2 54 -1 72 3
32 6 33 7 33 60 0 81 -3 85 -69 85 -32 0 -64 -6 -73 -12z"/>
<path d="M2978 2183 l-37 -4 4 -47 c2 -26 4 -57 4 -69 1 -21 6 -23 64 -23 86
0 91 6 83 75 -3 32 -9 62 -12 66 -5 9 -34 9 -106 2z"/>
<path d="M2825 2171 l-50 -6 0 -62 c0 -34 3 -65 8 -69 9 -9 129 -6 138 4 4 4
4 36 0 72 -7 73 -6 72 -96 61z"/>
<path d="M2604 2149 c-3 -5 2 -9 10 -9 11 0 16 -9 16 -29 0 -24 -3 -28 -20
-24 -11 3 -20 0 -20 -6 0 -6 5 -11 10 -11 15 0 12 -14 -9 -36 -10 -11 -21 -30
-25 -41 -10 -33 -49 -69 -70 -65 -12 3 -16 0 -11 -7 4 -7 2 -17 -3 -24 -5 -7
-21 -45 -36 -85 -15 -39 -36 -78 -45 -85 -19 -13 -75 -107 -64 -107 4 0 2 -5
-5 -12 -8 -8 -15 -8 -27 2 -21 17 -30 6 -43 -55 -14 -70 -63 -228 -73 -240 -5
-5 -9 -17 -9 -27 0 -10 -11 -25 -25 -34 -17 -11 -25 -25 -25 -45 0 -18 -12
-41 -36 -66 -19 -21 -44 -55 -55 -75 -10 -20 -30 -48 -44 -62 -14 -14 -25 -30
-25 -36 0 -6 -15 -26 -34 -45 -38 -37 -54 -88 -36 -109 14 -18 4 -60 -21 -82
-10 -9 -19 -24 -19 -33 0 -9 -29 -59 -65 -111 -36 -52 -65 -102 -65 -111 0 -9
-3 -19 -6 -22 -4 -4 -8 -20 -9 -37 -2 -16 -11 -42 -21 -57 -16 -25 -37 -67
-123 -248 -11 -22 -22 -50 -26 -62 -3 -13 -10 -23 -15 -23 -4 0 -10 -7 -14
-15 -4 -12 7 -15 68 -15 l74 0 15 43 c16 43 53 142 112 297 18 47 46 112 63
146 31 61 31 61 82 67 28 3 55 9 61 13 6 3 42 71 82 150 61 124 83 157 152
232 44 48 105 120 134 160 30 40 60 72 65 72 6 0 30 40 54 88 50 100 88 170
101 186 6 6 8 41 6 76 -4 78 2 108 23 114 10 3 109 12 222 21 113 8 244 18
292 21 69 5 88 10 90 23 4 21 -8 140 -15 147 -3 3 -103 -2 -223 -10 -121 -9
-249 -18 -286 -21 -67 -4 -108 11 -46 17 l33 3 2 65 c0 36 1 73 2 82 1 11 13
21 34 26 29 7 32 12 35 52 2 24 1 54 -3 67 -5 22 -10 23 -70 22 -36 -1 -68 -6
-71 -10z m-109 -588 c-4 -9 -9 -28 -12 -43 -3 -16 -10 -28 -15 -28 -5 0 -6 -5
-2 -11 6 -10 -12 -28 -28 -29 -4 0 1 23 12 50 11 28 20 59 20 70 0 13 5 18 16
13 9 -3 13 -12 9 -22z"/>
<path d="M2087 2113 c-4 -3 -7 -15 -7 -26 0 -19 1 -20 20 -2 11 10 20 22 20
27 0 10 -24 11 -33 1z"/>
<path d="M2230 2099 c0 -5 5 -7 10 -4 6 3 10 8 10 11 0 2 -4 4 -10 4 -5 0 -10
-5 -10 -11z"/>
<path d="M1716 2088 c-61 -5 -112 -10 -114 -12 -2 -3 -1 -34 3 -71 l7 -66 102
6 c55 4 104 10 107 14 3 3 19 29 34 58 30 57 28 84 -7 82 -13 -1 -72 -6 -132
-11z m-56 -104 c0 -8 -5 -12 -10 -9 -6 4 -8 11 -5 16 9 14 15 11 15 -7z"/>
<path d="M3889 2084 c-75 -6 -142 -14 -147 -18 -13 -8 -4 -117 12 -132 8 -8
53 -8 166 2 85 7 163 13 173 13 14 1 17 9 16 44 -1 23 -4 56 -8 72 -7 36 -13
37 -212 19z"/>
<path d="M3615 2061 l-50 -6 2 -64 c1 -35 5 -67 10 -72 5 -5 37 -5 73 -1 l65
7 3 52 c3 59 -10 94 -36 91 -9 0 -39 -4 -67 -7z"/>
<path d="M3397 2043 c-9 -8 -9 -71 -1 -113 l7 -32 66 6 c36 4 69 10 73 14 4 4
4 35 1 70 l-6 62 -67 0 c-37 0 -70 -3 -73 -7z"/>
<path d="M3227 2027 c-16 -11 -17 -20 -10 -72 l8 -60 61 -3 c81 -4 91 6 84 84
l-5 59 -60 3 c-38 2 -67 -2 -78 -11z"/>
<path d="M3071 2023 l-34 -4 7 -52 c3 -29 6 -60 6 -69 0 -15 10 -18 69 -18 39
0 73 5 76 10 4 6 3 40 0 75 l-7 65 -42 -2 c-22 0 -56 -3 -75 -5z"/>
<path d="M2128 2003 c-8 -10 -18 -35 -21 -57 -7 -46 -7 -46 27 22 26 52 23 68
-6 35z"/>
<path d="M2930 2011 l-55 -6 -3 -60 c-1 -33 2 -66 6 -73 11 -16 139 -6 145 12
2 6 1 38 -2 71 -7 67 -5 65 -91 56z m27 -73 c-3 -8 -6 -5 -6 6 -1 11 2 17 5
13 3 -3 4 -12 1 -19z"/>
<path d="M2755 2000 l-60 -5 3 -60 c1 -33 4 -66 7 -72 5 -14 62 -17 114 -7 29
6 31 9 31 53 0 57 -8 89 -23 93 -7 2 -39 1 -72 -2z"/>
<path d="M5286 1953 c-14 -20 -23 -40 -20 -44 3 -5 0 -18 -6 -29 -20 -38 26
-132 62 -126 22 3 49 26 42 37 -3 5 -1 9 5 9 15 0 25 68 12 84 -6 7 -8 15 -6
18 10 10 -17 57 -41 73 -22 14 -24 13 -48 -22z"/>
<path d="M2457 1920 c3 -11 7 -20 9 -20 2 0 4 9 4 20 0 11 -4 20 -9 20 -5 0
-7 -9 -4 -20z"/>
<path d="M1720 1923 c-25 -2 -60 -6 -77 -8 -33 -6 -33 -6 -33 -63 0 -32 4 -62
9 -67 6 -6 40 -8 77 -5 75 6 74 4 87 103 5 34 3 47 -6 45 -6 -1 -32 -3 -57 -5z
m-48 -98 c0 -5 -5 -11 -11 -13 -6 -2 -11 4 -11 13 0 9 5 15 11 13 6 -2 11 -8
11 -13z"/>
<path d="M3853 1913 c-36 -3 -53 -9 -58 -21 -9 -23 5 -141 18 -149 17 -11 131
-2 139 10 10 16 -2 138 -15 155 -5 6 -15 11 -21 10 -6 -1 -34 -3 -63 -5z"/>
<path d="M6130 1895 c7 -9 11 -36 8 -70 -2 -44 0 -55 12 -55 12 0 14 12 12 66
l-4 65 28 -3 c41 -4 63 -47 47 -89 -12 -31 -12 -31 7 -14 51 46 4 115 -78 115
-38 0 -43 -2 -32 -15z"/>
<path d="M6290 1895 c8 -10 11 -35 8 -70 -4 -49 -3 -55 15 -55 14 0 17 3 9 13
-5 6 -9 35 -9 62 2 43 5 50 22 50 23 0 36 -45 13 -45 -8 -1 -6 -6 6 -15 13
-10 17 -22 14 -40 -4 -20 -3 -23 8 -14 16 14 18 45 4 54 -6 4 -8 16 -5 26 10
30 -13 49 -57 49 -35 0 -39 -2 -28 -15z"/>
<path d="M3463 1880 c-20 -8 -21 -14 -17 -67 10 -112 6 -107 82 -99 37 4 71
11 76 16 4 4 4 41 0 82 l-9 73 -55 2 c-30 1 -65 -2 -77 -7z"/>
<path d="M3295 1871 c-69 -7 -71 -9 -60 -107 l7 -64 71 0 c40 0 83 3 96 7 23
6 23 8 18 79 -3 40 -8 78 -12 84 -6 10 -20 11 -120 1z"/>
<path d="M5510 1845 c7 -8 10 -28 8 -45 -3 -17 0 -30 6 -30 14 0 14 72 1 82
-18 13 -28 8 -15 -7z"/>
<path d="M5560 1850 c0 -5 5 -10 11 -10 7 0 10 -14 7 -35 -3 -24 0 -35 9 -35
17 0 17 62 1 78 -15 15 -28 16 -28 2z"/>
<path d="M5780 1853 c-23 -4 -25 -8 -22 -43 2 -22 9 -40 16 -40 8 0 11 12 8
36 -4 33 -2 35 19 32 20 -2 24 -9 24 -35 0 -18 5 -33 11 -33 6 0 8 15 5 42 -6
44 -13 49 -61 41z"/>
<path d="M4033 1843 c-56 -4 -63 -12 -56 -60 5 -32 6 -33 57 -33 81 0 96 7 96
44 0 33 -16 57 -34 54 -6 -1 -34 -3 -63 -5z"/>
<path d="M5455 1810 c0 -22 5 -40 10 -40 6 0 10 18 10 40 0 22 -4 40 -10 40
-5 0 -10 -18 -10 -40z"/>
<path d="M5642 1838 c-22 -22 -7 -68 21 -68 5 0 4 7 -3 15 -7 8 -10 26 -8 40
6 29 6 29 -10 13z"/>
<path d="M5704 1834 c3 -9 6 -25 6 -37 1 -20 2 -20 11 -4 11 20 3 57 -13 57
-5 0 -7 -7 -4 -16z"/>
<path d="M5935 1826 c0 -13 3 -22 8 -19 4 2 7 10 7 18 0 7 6 16 13 18 6 3 3 6
-8 6 -15 1 -20 -5 -20 -23z"/>
<path d="M5995 1830 c-9 -27 3 -60 21 -60 13 0 13 3 1 21 -8 11 -13 29 -10 40
7 25 -4 25 -12 -1z"/>
<path d="M6059 1832 c6 -11 8 -29 4 -39 -4 -14 -3 -15 6 -7 16 15 11 56 -7 62
-11 3 -12 0 -3 -16z"/>
<path d="M5881 1823 c-1 -13 3 -23 8 -23 5 0 7 -9 4 -20 -5 -17 0 -20 26 -20
25 0 31 -4 31 -22 1 -22 1 -22 12 -4 9 15 7 22 -8 33 -10 7 -23 13 -29 13 -6
0 -19 15 -28 33 -14 28 -16 29 -16 10z"/>
<path d="M3653 1813 c-19 -4 -23 -11 -23 -43 0 -21 4 -41 9 -44 4 -3 38 -3 75
1 l67 6 -3 41 -3 41 -50 1 c-27 1 -60 0 -72 -3z"/>
<path d="M1624 1741 c-6 -6 -5 -113 2 -138 5 -19 13 -23 49 -23 40 0 44 2 54
33 5 17 12 48 16 67 4 19 9 43 12 53 4 16 -2 18 -62 15 -36 -1 -68 -5 -71 -7z"/>
<path d="M5877 1743 c-12 -12 15 -33 42 -32 20 1 22 2 6 6 -11 3 -25 11 -31
19 -6 7 -14 11 -17 7z"/>
<path d="M4823 1534 c-6 -13 -8 -24 -4 -24 10 0 31 39 23 44 -4 2 -12 -7 -19
-20z"/>
<path d="M4810 1479 c0 -5 -4 -8 -9 -4 -5 3 -12 1 -15 -4 -8 -13 22 -7 36 7 9
9 9 12 0 12 -7 0 -12 -5 -12 -11z"/>
<path d="M4038 1222 c11 -28 71 -97 78 -90 3 4 -3 15 -14 26 -10 10 -28 33
-38 51 -20 33 -38 43 -26 13z"/>
<path d="M3890 1180 c0 -17 76 -108 122 -147 83 -69 94 -86 88 -137 -2 -23 19
-76 32 -76 5 0 13 10 18 23 8 21 9 21 9 -5 1 -18 16 -44 46 -75 24 -26 45 -53
45 -60 0 -15 49 -73 61 -73 17 0 9 35 -11 47 -11 7 -26 26 -35 42 -19 38 -32
161 -16 161 6 0 11 5 11 10 0 14 -102 194 -112 198 -4 2 -8 10 -8 18 0 8 -10
14 -21 14 -16 0 -19 -3 -11 -12 21 -27 49 -106 42 -118 -11 -18 -59 10 -104
62 -21 24 -52 59 -69 78 -42 48 -87 74 -87 50z"/>
<path d="M5356 1173 c-6 -14 -5 -15 5 -6 7 7 10 15 7 18 -3 3 -9 -2 -12 -12z"/>
<path d="M3230 1170 c0 -6 7 -10 15 -10 8 0 15 2 15 4 0 2 -7 6 -15 10 -8 3
-15 1 -15 -4z"/>
<path d="M3699 1173 c22 -9 91 -86 108 -120 8 -18 20 -33 25 -33 5 0 6 -4 3
-10 -3 -5 1 -10 9 -10 9 0 16 -6 16 -13 0 -7 9 -13 20 -14 11 -1 20 2 20 6 0
16 -183 201 -198 200 -12 0 -13 -2 -3 -6z"/>
<path d="M3401 1104 c0 -11 3 -14 6 -6 3 7 2 16 -1 19 -3 4 -6 -2 -5 -13z"/>
<path d="M4857 1103 c-4 -3 -6 -29 -5 -57 1 -47 2 -48 5 -11 6 59 18 62 37 10
10 -25 24 -45 31 -45 8 0 24 21 37 48 l22 47 4 -47 c2 -27 7 -48 13 -48 15 0
11 86 -6 100 -12 10 -18 7 -32 -20 -38 -68 -39 -68 -61 -17 -20 45 -31 55 -45
40z"/>
<path d="M3556 1065 c-4 -11 -15 -15 -31 -13 -40 5 -33 -15 19 -52 27 -19 78
-61 113 -92 36 -32 69 -56 73 -53 15 10 -9 70 -39 95 -64 55 -97 87 -112 109
-14 19 -17 20 -23 6z"/>
<path d="M5032 1038 c3 -31 6 -33 46 -36 57 -4 54 -20 -5 -25 l-48 -3 51 -2
c39 -2 53 2 58 14 10 25 7 84 -4 84 -5 0 -10 -13 -10 -30 0 -28 -3 -30 -35
-30 -32 0 -35 2 -35 30 0 17 -5 30 -11 30 -6 0 -9 -14 -7 -32z"/>
<path d="M4020 844 c0 -12 7 -27 15 -34 23 -19 25 -9 4 25 -17 26 -19 27 -19
9z"/>
<path d="M4280 852 c0 -9 38 -52 46 -52 2 0 -5 14 -18 30 -23 31 -28 35 -28
22z"/>
<path d="M4070 765 c0 -9 5 -15 11 -13 6 2 11 8 11 13 0 5 -5 11 -11 13 -6 2
-11 -4 -11 -13z"/>
<path d="M4104 748 c-4 -7 -2 -14 4 -16 7 -2 12 -10 12 -18 0 -19 77 -100 87
-91 3 4 -1 13 -11 20 -9 7 -18 19 -20 27 -6 37 -19 59 -41 74 -18 12 -26 13
-31 4z"/>
<path d="M3807 663 c-15 -14 -6 -23 23 -23 32 0 40 14 14 24 -20 8 -29 8 -37
-1z"/>
<path d="M2920 644 c-91 -7 -168 -13 -172 -13 -5 -1 -8 -5 -8 -9 0 -4 42 -5
93 -1 50 4 126 10 167 13 41 3 96 6 123 6 26 0 47 5 47 10 0 12 -35 11 -250
-6z"/>
<path d="M4426 623 c-6 -14 -5 -15 5 -6 7 7 10 15 7 18 -3 3 -9 -2 -12 -12z"/>
<path d="M3465 610 c3 -5 11 -10 16 -10 6 0 7 5 4 10 -3 6 -11 10 -16 10 -6 0
-7 -4 -4 -10z"/>
<path d="M3722 599 c3 -15 46 -52 62 -55 6 -1 19 -5 30 -10 16 -6 17 -4 11 17
-9 28 -33 48 -57 49 -9 0 -24 3 -33 6 -10 4 -15 2 -13 -7z"/>
<path d="M4220 600 c8 -5 20 -10 25 -10 6 0 3 5 -5 10 -8 5 -19 10 -25 10 -5
0 -3 -5 5 -10z"/>
<path d="M3535 580 c3 -5 14 -10 23 -10 15 0 15 2 2 10 -20 13 -33 13 -25 0z"/>
<path d="M3310 555 c0 -2 14 -12 31 -20 30 -16 30 -16 19 4 -9 18 -50 31 -50
16z"/>
<path d="M3620 550 c8 -5 20 -10 25 -10 6 0 3 5 -5 10 -8 5 -19 10 -25 10 -5
0 -3 -5 5 -10z"/>
<path d="M3455 456 c11 -8 27 -16 36 -16 8 0 19 -4 25 -8 5 -5 42 -21 82 -36
40 -16 85 -38 100 -50 15 -12 56 -32 92 -43 36 -12 103 -39 150 -61 47 -21
122 -51 168 -66 61 -21 105 -44 166 -90 102 -76 120 -86 148 -86 22 0 22 0 -2
17 -14 9 -31 23 -38 30 -7 7 -16 13 -20 13 -17 0 -88 74 -97 100 -5 17 -13 29
-16 27 -4 -1 -15 5 -25 14 -11 9 -37 24 -59 34 -22 9 -49 21 -60 26 -11 5 -39
10 -62 11 -22 2 -39 6 -37 9 5 8 -32 19 -63 19 -13 0 -23 4 -23 8 0 5 -14 8
-31 7 -41 -2 -131 24 -124 36 4 5 -4 5 -19 -1 -18 -7 -28 -6 -33 3 -10 16
-109 62 -153 72 -19 4 -44 13 -55 20 -11 7 -31 16 -45 20 -24 7 -24 7 -5 -9z"/>
<path d="M3815 440 c16 -16 31 -28 34 -25 2 3 0 10 -6 16 -6 6 -9 19 -6 28 4
14 3 14 -7 1 -9 -11 -13 -12 -17 -2 -2 6 -10 12 -16 12 -6 0 2 -13 18 -30z"/>
<path d="M4905 118 c11 -15 30 -32 42 -39 12 -6 22 -15 21 -18 -3 -16 16 -41
31 -41 9 0 22 -5 28 -11 6 -6 17 -9 25 -6 9 4 5 8 -9 12 -13 4 -23 12 -23 17
0 5 -4 6 -10 3 -5 -3 -10 -2 -10 3 0 5 -26 31 -57 58 -37 32 -51 40 -38 22z"/>
</g>
</svg>
